<svg width="720" height="270" xmlns="http://www.w3.org/2000/svg" xmlns:xlink="http://www.w3.org/1999/xlink" xml:space="preserve" overflow="hidden"><g transform="translate(-280 -225)"><path d="M210.516 481.57C205.875 480.727 202.781 479.109 199.125 475.734 193.781 470.742 192.305 467.156 192.305 459.141 192.305 453.445 192.586 451.969 194.062 449.016 196.102 445.008 202.219 439.172 205.664 437.977L208.125 437.062 208.125 424.828 208.125 412.594 206.578 413.016C202.5 414.211 192.234 414.281 188.086 413.156L183.867 412.031 173.18 422.719 162.492 433.336 163.898 436.148C166.992 442.195 166.781 450.844 163.266 457.242 156.375 470.039 137.742 472.43 127.266 461.953 122.695 457.383 120.656 452.25 120.586 445.43 120.586 440.648 120.867 439.172 122.555 435.797 127.547 425.602 139.359 420.328 149.906 423.562L153.141 424.477 163.055 414.562 172.969 404.578 170.648 402.328C164.672 396.492 161.719 388.336 161.719 377.578L161.719 370.828 157.922 369.633C155.812 368.93 151.734 366.68 148.852 364.641L143.578 360.844 140.977 363.516C138.445 366.117 138.445 366.117 139.289 369.422 140.414 373.992 139.781 381.445 137.883 385.172 135.562 389.742 131.766 393.469 127.406 395.648 123.961 397.336 122.555 397.617 117.422 397.617 112.43 397.617 110.812 397.336 107.578 395.789 102.797 393.469 99 389.812 96.5391 385.102 94.8516 381.938 94.6406 380.602 94.6406 375.117 94.5703 368.016 95.8359 364.641 100.125 359.508 103.992 355.078 108.984 352.758 115.664 352.406 120.586 352.125 121.992 352.336 125.789 353.883L130.219 355.711 133.594 352.547 136.969 349.383 135.984 346.148C134.508 341.297 134.719 331.523 136.406 326.109 138.938 317.953 145.266 309.938 152.648 305.648 158.766 302.133 162 301.641 180.141 301.641L196.875 301.641 196.875 292.852 196.875 283.992 193.711 282.656C189.211 280.758 184.008 275.555 182.039 271.195 179.859 266.203 179.789 257.695 181.898 252.984 183.867 248.625 188.648 243.562 193.008 241.312 196.031 239.695 197.367 239.414 202.852 239.414 208.336 239.414 209.672 239.695 213.188 241.383 217.547 243.562 221.344 247.289 223.664 251.859 225.844 256.008 226.336 264.938 224.648 269.93 223.172 274.5 218.25 279.984 213.68 282.164L210.164 283.852 210.164 292.57 210.164 301.289 228.656 301.641C245.883 301.992 247.43 302.133 251.016 303.609 266.062 309.938 275.625 324.07 275.625 339.961 275.625 344.672 273.305 353.742 271.055 357.75 269.367 360.773 269.297 361.336 269.297 373.711L269.297 386.508 274.008 388.898C282.375 393.188 286.664 400.992 286.031 410.695 285.398 419.273 280.898 425.812 272.883 429.75 270.281 431.016 268.453 431.367 263.32 431.367 255.727 431.367 251.859 429.82 246.727 424.688 236.391 414.352 239.133 395.859 252 389.109L255.938 387.07 255.938 380.602C255.938 377.016 255.797 374.062 255.586 374.062 255.375 374.062 253.898 374.695 252.352 375.539 248.906 377.297 241.383 378.984 236.953 378.984L233.719 378.984 233.016 383.836C231.961 390.164 228.727 397.055 224.648 401.414L221.414 404.859 221.414 420.891 221.414 436.852 224.789 438.539C229.359 440.859 233.156 444.656 235.406 449.297 238.078 454.781 238.078 462.727 235.477 468.281 232.875 473.836 229.781 477.07 224.789 479.461 220.148 481.711 215.227 482.414 210.516 481.57ZM218.32 468C222.398 466.242 224.789 460.898 223.594 456.258 222.258 451.336 216.141 448.102 211.641 450 209.109 451.055 206.227 454.289 205.594 456.75 204.469 461.18 207.633 467.016 211.852 468.211 215.016 469.125 215.578 469.125 218.32 468ZM146.742 454.57C147.586 454.359 149.273 453.023 150.398 451.688 155.531 445.852 151.172 435.938 143.438 435.938 138.234 435.938 134.297 440.227 134.297 445.922 134.297 448.664 134.719 449.719 136.477 451.758 138.586 454.148 142.031 455.695 144.141 455.273 144.703 455.133 145.898 454.852 146.742 454.57ZM268.453 416.953C276.258 412.172 272.883 399.375 263.812 399.375 255.375 399.375 251.016 408.445 256.43 414.914 257.484 416.109 258.961 417.375 259.734 417.656 262.336 418.711 266.062 418.43 268.453 416.953ZM207.07 398.531C215.578 394.172 219.656 387.633 220.359 377.227 221.062 367.453 223.242 365.344 232.031 365.906 244.758 366.75 255.094 360.984 260.016 350.297 261.562 346.852 261.844 345.305 261.844 339.609 261.914 333.844 261.633 332.367 260.086 328.992 257.484 323.438 253.758 319.641 248.344 316.969L243.633 314.648 203.906 314.648 164.18 314.648 160.664 316.406C156.445 318.445 152.438 322.383 150.398 326.391 149.203 328.641 148.711 331.031 148.5 335.531 148.219 340.875 148.43 342 149.906 345.375 150.891 347.414 152.508 350.086 153.492 351.281 155.883 354.094 162.422 357.539 167.555 358.664 170.508 359.297 172.125 360.07 173.391 361.547 175.008 363.516 175.078 364.078 175.078 373.219 175.078 383.836 175.711 387.141 178.383 391.148 180.492 394.242 185.766 398.25 189.633 399.727 193.922 401.344 202.711 400.781 207.07 398.531ZM121.992 383.203C130.078 378.211 126.422 365.625 116.93 365.625 111.234 365.625 106.664 371.953 108.281 377.508 110.039 383.625 116.789 386.438 121.992 383.203ZM207.492 270.352C210.305 268.875 212.344 265.359 212.344 261.914 212.344 256.43 208.195 252.422 202.43 252.422 199.969 252.422 199.055 252.844 196.805 255.164 194.273 257.625 194.062 258.188 194.062 261.703 194.062 265.922 195.188 268.031 198.562 270.07 201.234 271.688 204.68 271.758 207.492 270.352Z" transform="matrix(1 0 0 -1.00329 280 722.373)"/><path d="M322.734 363.727 322.734 325.547 336.727 325.547C357.75 325.547 366.609 327.867 373.852 335.18 380.812 342.141 383.977 351.352 383.977 364.078 383.906 382.008 376.312 394.102 361.758 399.445 357.961 400.852 355.711 401.062 340.102 401.414L322.734 401.836 322.734 363.727ZM355.711 387C360.562 385.594 364.852 381.305 367.102 375.75 368.508 372.234 368.719 370.406 368.719 363.516 368.719 353.602 367.172 349.031 362.461 344.25 358.383 340.242 354.445 338.906 345.094 338.414L337.5 337.992 337.5 363.094 337.5 388.125 344.742 388.125C349.312 388.125 353.391 387.703 355.711 387Z" transform="matrix(1 0 0 -1.00329 280 722.373)"/><path d="M394.805 401.484C394.383 400.641 394.875 325.195 395.367 325.406 395.648 325.477 405.352 325.547 416.953 325.547L438.047 325.547 438.047 332.227 438.047 338.977 423.844 338.906 409.57 338.766 409.359 347.977 409.148 357.188 421.875 357.188 434.602 357.188 434.391 363.586 434.18 369.984 421.734 369.914 409.219 369.773 409.219 379.336 409.219 388.828 423.633 388.828 438.047 388.828 438.047 395.367 438.047 401.836 416.531 401.836C404.719 401.836 394.945 401.695 394.805 401.484Z" transform="matrix(1 0 0 -1.00329 280 722.373)"/><path d="M506.953 363.727 506.953 325.547 514.336 325.547 521.719 325.547 521.719 338.836 521.719 352.055 531.07 352.406C538.172 352.758 541.266 353.18 544.289 354.305 555.539 358.594 560.812 366.82 560.25 379.055 559.758 389.109 555.82 395.227 547.031 399.305 543.234 401.062 542.742 401.133 525.023 401.484L506.953 401.836 506.953 363.727ZM538.664 387.492C543.375 385.172 544.57 383.062 544.57 377.227 544.57 373.219 544.289 371.883 542.953 370.055 540.492 366.609 536.344 364.992 528.469 364.43L521.719 364.008 521.719 376.875 521.719 389.742 528.68 389.391C533.883 389.109 536.344 388.688 538.664 387.492Z" transform="matrix(1 0 0 -1.00329 280 722.373)"/><path d="M598.922 401.695C581.133 401.484 575.859 401.273 575.859 400.57 575.859 400.148 575.016 390.305 574.031 378.773 572.977 367.312 572.273 357.75 572.414 357.609 572.555 357.539 575.859 357.68 579.727 358.031 585.703 358.594 587.039 358.945 588.516 360.352 593.859 365.414 603.703 365.414 608.344 360.211 611.719 356.484 612.703 349.172 610.383 344.18 607.992 338.977 604.336 336.797 598.148 336.797 592.945 336.797 589.359 339.047 587.109 343.477 586.125 345.445 585.281 347.133 585.211 347.273 585 347.625 571.781 345.797 570.938 345.234 570.445 344.883 570.656 343.406 571.711 340.594 573.891 334.898 580.219 328.5 586.055 326.25 591.82 324 602.156 323.508 607.922 325.125 613.828 326.812 619.172 330.68 622.336 335.531 625.641 340.664 626.766 345.305 626.344 352.195 625.781 361.688 621.141 369.07 613.336 373.078 609.609 374.977 608.625 375.117 601.875 375.117 595.336 375.117 594.07 374.906 590.766 373.289 587.039 371.461 587.039 371.461 587.32 372.938 587.531 373.711 587.953 377.648 588.234 381.656L588.727 388.828 605.461 388.828 622.266 388.828 622.266 395.508C622.266 399.164 622.195 402.117 622.125 402.047 621.984 401.906 611.578 401.766 598.922 401.695Z" transform="matrix(1 0 0 -1.00329 280 722.373)"/><path d="M450.703 363.516 450.703 325.547 472.5 325.547 494.297 325.547 494.297 332.227 494.297 338.906 479.883 338.906 465.469 338.906 465.469 348.047 465.469 357.188 477.844 357.328 490.219 357.539 490.219 363.727 490.219 369.984 477.844 369.844 465.469 369.773 465.469 379.336 465.469 388.828 479.883 388.828 494.297 388.828 494.297 395.156 494.297 401.484 472.5 401.484 450.703 401.484 450.703 363.516Z" transform="matrix(1 0 0 -1.00329 280 722.373)"/></g></svg>