<svg width="720" height="291" xmlns="http://www.w3.org/2000/svg" xmlns:xlink="http://www.w3.org/1999/xlink" xml:space="preserve" overflow="hidden"><defs><clipPath id="clip0"><rect x="280" y="202" width="720" height="291"/></clipPath></defs><g clip-path="url(#clip0)" transform="translate(-280 -202)"><path d="M0 0 720 0 720 720 0 720 0 0Z" fill="#FFFFFF" transform="matrix(1 0 0 1.00222 280 -0.683264)"/><path d="M107.876 222.829C112.89 222.751 117.675 230.017 123.455 230.456 146.091 232.17 169.614 232.774 192.39 233.899 199.71 234.26 212.193 234.053 218.974 235.415 223.14 236.251 227.074 238.373 230.925 240.107L251.655 249.435C255.367 251.105 259.211 253.165 263.093 254.373 269.312 256.308 283.065 256.301 290.497 257.3 290.187 254.439 289.419 250.808 289.997 247.976 293.295 246.594 299.906 250.989 302.961 252.474 307.656 254.756 312.583 257.591 317.553 259.133 321.793 260.447 326.546 260.631 330.945 261.127 338.032 261.882 345.112 262.706 352.183 263.599 354.301 267.817 356.112 272.271 356.852 276.948 352.582 281.171 346.667 284.608 341.734 288.084 329.546 296.67 316.774 304.94 305.096 314.191 300.691 317.68 283.349 343.571 280.218 349.876 278.565 353.205 277.315 356.527 276.912 360.238 275.501 373.264 281.952 377.109 289.375 386.392 273.388 396.887 269.852 404.896 265.12 423.008 260.318 424.389 248.037 427.949 244.464 430.932 242.604 432.485 241.311 434.663 239.944 436.636 237.661 439.931 235.356 443.649 232.484 446.454 232.385 446.55 232.283 446.644 232.182 446.74 213.365 437.584 198.591 426.218 188.873 407.159 179.623 389.016 177.753 366.45 184.073 347.074 190.614 327.023 205.91 308.166 224.809 298.588 244.849 288.434 266.186 289.22 287.073 296.01 285.249 300.736 283.228 305.378 281.511 310.147 293.328 307.285 305.06 304.585 316.726 301.108 310.403 292.816 307.582 283.964 303.031 274.81 299.963 277.662 297.43 280.564 295.04 284.005 280.775 278.971 274.163 277.599 259.014 277.628 255.857 277.628 252.691 277.652 249.546 277.945 225.716 280.169 204.784 291.727 189.563 310.069 179.037 322.753 170.421 339.137 167.934 355.632 166.714 363.727 166.923 373.236 167.714 381.367 169.916 404.014 181.034 426.303 198.754 440.75 224.683 461.887 260.954 463.423 291.286 451.666 294.876 450.274 309.703 442.744 311.105 442.605L311.406 442.988C310.856 444.575 309.194 445.829 307.894 446.825 293.235 458.053 270.176 465.536 251.667 465.479 244.108 465.455 236.651 464.093 229.409 461.994 217.87 458.649 206.76 452.921 194.756 451.455 173.227 448.826 166.111 459.524 150.899 471.33 150.505 471.262 150.147 471.202 149.77 471.067 145.88 469.671 140.074 467.301 137.166 464.3 133.307 460.316 130.397 446.859 127.938 441.096 123.128 438.951 107.873 436.249 104.972 433.492 102.514 431.155 102.715 424.259 102.665 421.014 105.318 415.874 109.678 411.033 113.141 406.391 111.583 401.671 109.915 396.952 108.655 392.143 110.955 386.365 114.521 380.752 117.472 375.273 113.687 368.775 109.666 362.41 105.869 355.917 109.767 353.61 113.986 351.714 117.971 349.534 118.867 343.397 125.21 309.81 127.247 306.125 129.317 302.378 135.561 297.572 138.814 294.455 131.527 286.567 126.17 284.035 115.966 281.362 106.986 279.009 103.763 278.488 94.5387 279.561 90.4978 280.031 84.7273 281.656 80.8144 280.863 78.9082 278.89 81.817 265.335 81.5435 261.592 81.057 254.932 73.6144 248.759 73.2572 243.177 75.0213 239.871 102.223 225.943 107.876 222.829Z" fill="#224762" transform="matrix(1 0 0 1.00222 280 -0.683264)"/><path d="M391.665 263.673 412.687 263.622C418.755 263.612 425.1 263.249 431.061 264.509 437.035 265.769 442.628 268.71 445.923 274.044 449.682 280.129 450.05 289.034 448.277 295.824 446.136 304.021 440.355 308.126 433.427 312.227 439.963 322.631 446.354 333.556 451.907 344.518L437.256 344.563C436.511 344.596 435.903 344.667 435.183 344.436 433.837 344.003 420.674 318.542 418.939 315.256L407.101 315.292 407.124 344.537 391.686 344.566 391.665 263.673Z" fill="#224762" transform="matrix(1 0 0 1.00222 280 -0.683264)"/><path d="M407.129 276.735C413.143 276.724 423.915 275.455 428.884 279.227 431.099 280.908 432.082 283.464 432.365 286.155 432.845 290.712 432.2 294.972 429.189 298.555 423.544 303.104 413.996 301.707 407.116 301.674L407.129 276.735Z" fill="#FFFFFF" transform="matrix(1 0 0 1.00222 280 -0.683264)"/><path d="M550.379 262.576 564.921 262.583C564.588 289.883 564.886 317.234 564.934 344.538L551.988 344.559C551.936 342.558 551.744 340.553 551.601 338.556 549.943 339.941 548.162 341.278 546.262 342.314 539.816 345.829 532.606 346.038 525.65 344.017 523.341 343.064 521.214 342.001 519.258 340.429 513.542 335.835 510.952 328.918 510.267 321.788 509.373 312.491 510.27 301.935 516.483 294.487 520.388 289.807 525.913 287.169 531.944 286.627 539.295 285.966 544.705 288.259 550.266 292.949 550.513 282.833 550.383 272.694 550.379 262.576Z" fill="#224762" transform="matrix(1 0 0 1.00222 280 -0.683264)"/><path d="M535.707 298.175C536.354 298.129 537 298.102 537.649 298.097 541.256 298.045 544.437 298.944 547.037 301.584 552.743 307.377 550.929 319.402 550.841 327.061 548.068 331.084 545.246 333.068 540.459 333.983 537.764 334.058 535.316 333.892 532.856 332.674 529.096 330.813 526.781 327.44 525.553 323.509 523.761 317.768 524.124 309.826 527.137 304.564 529.139 301.065 531.887 299.221 535.707 298.175Z" fill="#FFFFFF" transform="matrix(1 0 0 1.00222 280 -0.683264)"/><path d="M468.177 384.751C475.516 384.054 483.331 385.873 489.172 390.475 495.056 395.109 498.277 401.934 499.073 409.292 500.04 418.233 499.153 428.2 493.234 435.389 488.243 441.451 481.499 443.877 473.886 444.589 466.208 445.173 458.27 443.737 452.152 438.82 446.236 434.066 443.408 426.951 442.685 419.55 441.821 410.704 442.996 400.989 448.848 393.938 453.824 387.943 460.629 385.5 468.177 384.751Z" fill="#224762" transform="matrix(1 0 0 1.00222 280 -0.683264)"/><path d="M468.431 396.667C471.698 396.484 474.489 396.477 477.438 398.164 481.11 400.265 483.206 403.944 484.213 407.95 485.662 413.719 485.151 421.742 481.951 426.836 479.855 430.171 477.144 431.76 473.397 432.652 470.469 432.854 467.785 432.778 465.098 431.459 461.633 429.76 459.304 426.571 458.125 422.958 456.239 417.177 456.538 409.246 459.387 403.819 461.407 399.974 464.359 397.877 468.431 396.667Z" fill="#FFFFFF" transform="matrix(1 0 0 1.00222 280 -0.683264)"/><path d="M476.245 286.298C477.197 286.209 478.138 286.178 479.093 286.174 485.741 286.144 492.138 287.781 496.943 292.618 504.425 300.148 504.211 310.57 504.148 320.434 491.868 320.774 479.555 320.333 467.266 320.613 467.553 322.616 468.003 324.546 468.921 326.364 470.675 329.835 473.634 332.279 477.349 333.409 485.383 335.855 493.725 333 500.839 329.316 501.484 329.014 501.436 328.911 502.175 329.08 503.284 332.08 502.759 336.487 502.722 339.69 498.854 342.255 494.684 344.062 490.086 344.776 480.952 346.196 470.246 345.681 462.613 339.944 456.761 335.546 453.779 328.961 452.83 321.834 451.661 313.056 452.661 302.948 458.252 295.744 462.741 289.957 469.114 287.148 476.245 286.298Z" fill="#224762" transform="matrix(1 0 0 1.00222 280 -0.683264)"/><path d="M477.779 296.786C480.45 296.584 483.31 297.091 485.471 298.752 489.265 301.669 489.705 306.431 490.153 310.82L480.059 310.816 467.094 310.796C467.32 307.752 468.059 304.558 469.721 301.968 471.683 298.91 474.34 297.586 477.779 296.786Z" fill="#FFFFFF" transform="matrix(1 0 0 1.00222 280 -0.683264)"/><path d="M391.196 363.248 451.42 363.237 451.41 377.567 428.157 377.588 428.191 420.293 428.187 443.812C423.063 443.709 417.928 443.772 412.804 443.772L412.798 377.568 391.185 377.584 391.196 363.248Z" fill="#224762" transform="matrix(1 0 0 1.00222 280 -0.683264)"/><path d="M541.386 386.006 555.782 386.005 555.775 403.77 555.777 443.782 543.05 443.745 542.466 437.896C537.993 442.157 533.417 444.643 527.06 444.774 521.857 444.881 516.91 443.419 513.136 439.68 504.74 431.361 506.26 417.86 506.28 407.086L506.334 386.01 520.901 386.005C521.119 397.465 520.407 409.051 520.966 420.487 521.144 424.107 521.816 428.179 524.716 430.669 526.547 432.241 529.066 432.767 531.427 432.521 535.579 432.088 538.818 429.274 541.396 426.206L541.386 386.006Z" fill="#224762" transform="matrix(1 0 0 1.00222 280 -0.683264)"/><path d="M617.293 286.302C624.805 285.903 631.387 287.792 637.929 291.446 636.738 295.322 635.778 299.19 635.136 303.196 630.524 299.862 624.304 296.346 618.407 296.669 616.724 296.76 615.105 297.275 613.979 298.587 613.138 299.567 612.553 301.025 612.727 302.333 613.466 307.882 629.638 310.63 635.118 315.457 638.11 318.092 639.57 321.608 639.835 325.54 640.17 330.484 639.112 335.093 635.633 338.793 631.455 343.235 626.083 345.028 620.118 345.246 611.979 345.375 605.738 344.495 598.312 340.969 598.507 336.941 598.739 332.914 599.009 328.891 605.649 331.995 612.698 335.586 620.307 334.488 622.576 334.16 624.417 333.196 625.738 331.285 626.382 330.354 626.76 329.273 626.518 328.133 625.319 322.483 610.526 319.151 605.685 315.67 602.482 313.367 599.702 309.953 599.138 305.941 598.473 301.53 599.695 297.044 602.504 293.579 606.341 288.86 611.467 287.011 617.293 286.302Z" fill="#224762" transform="matrix(1 0 0 1.00222 280 -0.683264)"/><path d="M593.466 385.388C595.571 385.192 597.655 385.282 599.764 385.35L599.8 400.138C596.41 399.791 592.756 399.48 589.39 400.127 585.242 400.925 582.456 403.227 580.162 406.688 579.777 419.022 580.144 431.487 580.168 443.836 575.357 443.642 570.394 444.146 565.617 443.637L565.594 386.01 578.895 386.002 580.03 394.064C583.576 389.397 587.637 386.579 593.466 385.388Z" fill="#224762" transform="matrix(1 0 0 1.00222 280 -0.683264)"/><path d="M578.971 287.028 590.273 287.035 590.266 324.247C590.269 330.821 590.725 337.695 590.102 344.224 588.933 344.762 587.242 344.548 585.967 344.546L575.487 344.549 575.487 289.148C576.554 288.103 577.52 287.414 578.971 287.028Z" fill="#224762" transform="matrix(1 0 0 1.00222 280 -0.683264)"/><path d="M351.14 344.794C354.855 347.486 358.356 350.644 361.905 353.563L353.952 368.002 348.883 366.465C344.59 365.055 340.18 364.025 335.919 362.509 340.872 352.782 342.989 351.665 351.14 344.794Z" fill="#224762" transform="matrix(1 0 0 1.00222 280 -0.683264)"/><path d="M580.74 263.047C582.404 262.898 584.419 262.666 586.022 263.176 588.32 263.892 590.209 265.544 591.225 267.725 592.451 270.337 592.549 273.676 591.467 276.352 590.397 279.002 588.57 280.482 585.985 281.533 584.077 281.946 582.244 282.033 580.373 281.367 578.237 280.607 576.541 279.011 575.563 276.976 574.324 274.399 574.201 271.089 575.198 268.414 576.265 265.553 578.041 264.25 580.74 263.047Z" fill="#224762" transform="matrix(1 0 0 1.00222 280 -0.683264)"/><path d="M319.864 374.023 320.335 374.112C320.834 376.057 317.721 381.514 316.834 383.493L314.438 381.764C313.197 380.888 312.082 379.828 310.946 378.823 313.805 377.023 316.853 375.55 319.864 374.023Z" fill="#224762" transform="matrix(1 0 0 1.00222 280 -0.683264)"/></g></svg>