<?xml version="1.0" encoding="UTF-8" standalone="no"?>
<svg
   width="720"
   height="291"
   xml:space="preserve"
   overflow="hidden"
   version="1.1"
   id="svg18"
   sodipodi:docname="Redisstour2.svg"
   inkscape:version="1.4.2 (f4327f4, 2025-05-13)"
   xmlns:inkscape="http://www.inkscape.org/namespaces/inkscape"
   xmlns:sodipodi="http://sodipodi.sourceforge.net/DTD/sodipodi-0.dtd"
   xmlns="http://www.w3.org/2000/svg"
   xmlns:svg="http://www.w3.org/2000/svg"><sodipodi:namedview
     id="namedview18"
     pagecolor="#ffffff"
     bordercolor="#000000"
     borderopacity="0.25"
     inkscape:showpageshadow="2"
     inkscape:pageopacity="0.0"
     inkscape:pagecheckerboard="0"
     inkscape:deskcolor="#d1d1d1"
     showgrid="false"
     inkscape:zoom="0.97708333"
     inkscape:cx="251.258"
     inkscape:cy="204.1791"
     inkscape:window-width="1920"
     inkscape:window-height="1009"
     inkscape:window-x="2552"
     inkscape:window-y="-8"
     inkscape:window-maximized="1"
     inkscape:current-layer="g18" /><defs
     id="defs1"><clipPath
       id="clip0"><rect
         x="280"
         y="202"
         width="720"
         height="291"
         id="rect1" /></clipPath></defs><g
     clip-path="url(#clip0)"
     transform="translate(-281.02345,-198.41791)"
     id="g18"><path
       d="M 279.02798,30.272878 H 999.02794 V 751.87128 H 279.02798 Z"
       fill="#ffffff"
       id="path1"
       sodipodi:nodetypes="ccccc"
       style="stroke-width:1.00111" /><path
       d="m 691.92836,252.71972 21.022,-0.0511 c 6.068,-0.01 12.413,-0.37383 18.374,0.88897 5.974,1.2628 11.567,4.21032 14.862,9.55617 3.759,6.0985 4.127,15.02327 2.354,21.82835 -2.141,8.2152 -7.922,12.32931 -14.85,16.43941 6.536,10.4271 12.927,21.37635 18.48,32.36269 l -14.651,0.0451 c -0.745,0.0331 -1.353,0.10423 -2.073,-0.12728 -1.346,-0.43396 -14.509,-25.95149 -16.244,-29.24478 l -11.838,0.0361 0.023,29.30992 -15.438,0.0291 z"
       fill="#224762"
       id="path3"
       style="stroke-width:1.00111" /><path
       d="m 707.39236,265.81072 c 6.014,-0.011 16.786,-1.28284 21.755,2.49753 2.215,1.68473 3.198,4.24641 3.481,6.94338 0.48,4.56712 -0.165,8.83658 -3.176,12.42753 -5.645,4.5591 -15.193,3.159 -22.073,3.12592 z"
       fill="#ffffff"
       id="path4"
       sodipodi:nodetypes="cccccc"
       style="stroke-width:1.00111" /><path
       d="m 850.64236,251.62029 14.542,0.007 c -0.333,27.36061 -0.035,54.77233 0.013,82.13694 l -12.946,0.0211 c -0.052,-2.00544 -0.244,-4.01489 -0.387,-6.01633 -1.658,1.38808 -3.439,2.72805 -5.339,3.76635 -6.446,3.5228 -13.656,3.73226 -20.612,1.70678 -2.309,-0.95512 -4.436,-2.02048 -6.392,-3.59597 -5.716,-4.6042 -8.306,-11.53655 -8.991,-18.68238 -0.894,-9.31764 0.003,-19.89708 6.216,-27.36161 3.905,-4.69039 9.43,-7.33425 15.461,-7.87745 7.351,-0.66247 12.761,1.63562 18.322,6.33604 0.247,-10.13846 0.117,-20.29997 0.113,-30.44043 z"
       fill="#224762"
       id="path5"
       style="stroke-width:1.00111" /><path
       d="m 835.97036,287.29832 c 0.647,-0.0461 1.293,-0.0732 1.942,-0.0782 3.607,-0.0521 6.788,0.84888 9.388,3.49474 5.706,5.80587 3.892,17.85756 3.804,25.53356 -2.773,4.03193 -5.595,6.02034 -10.382,6.93737 -2.695,0.0752 -5.143,-0.0912 -7.603,-1.31191 -3.76,-1.86513 -6.075,-5.24561 -7.303,-9.18534 -1.792,-5.75375 -1.429,-13.71338 1.584,-18.98706 2.002,-3.50677 4.75,-5.35486 8.57,-6.40318 z"
       fill="#ffffff"
       id="path6"
       style="stroke-width:1.00111" /><path
       d="m 768.44036,374.06652 c 7.339,-0.69855 15.154,1.12449 20.995,5.7367 5.884,4.64429 9.105,11.48444 9.901,18.85878 0.967,8.96085 0.08,18.94997 -5.839,26.15493 -4.991,6.07546 -11.735,8.50685 -19.348,9.22043 -7.678,0.58529 -15.616,-0.8539 -21.734,-5.78181 -5.916,-4.76455 -8.744,-11.89535 -9.467,-19.31278 -0.864,-8.86564 0.311,-18.60221 6.163,-25.66886 4.976,-6.00831 11.781,-8.45673 19.329,-9.20739 z"
       fill="#224762"
       id="path7"
       style="stroke-width:1.00111" /><path
       d="m 768.69436,386.00897 c 3.267,-0.18341 6.058,-0.19042 9.007,1.50032 3.672,2.10567 5.768,5.79283 6.775,9.80773 1.449,5.7818 0.938,13.82262 -2.262,18.92792 -2.096,3.34241 -4.807,4.93494 -8.554,5.82892 -2.928,0.20244 -5.612,0.12628 -8.299,-1.19565 -3.465,-1.70277 -5.794,-4.89885 -6.973,-8.51987 -1.886,-5.79384 -1.587,-13.74245 1.262,-19.18149 2.02,-3.85354 4.972,-5.95519 9.044,-7.16788 z"
       fill="#ffffff"
       id="path8"
       style="stroke-width:1.00111" /><path
       d="m 776.50836,275.39495 c 0.952,-0.0892 1.893,-0.12027 2.848,-0.12428 6.648,-0.0301 13.045,1.61057 17.85,6.45831 7.482,7.54672 7.268,17.99185 7.205,27.87775 -12.28,0.34076 -24.593,-0.10122 -36.882,0.1794 0.287,2.00745 0.737,3.94173 1.655,5.76377 1.754,3.4787 4.713,5.92813 8.428,7.06064 8.034,2.45143 16.376,-0.40991 23.49,-4.10209 0.645,-0.30267 0.597,-0.4059 1.336,-0.23652 1.109,3.00666 0.584,7.42344 0.547,10.63355 -3.868,2.57069 -8.038,4.38171 -12.636,5.09729 -9.134,1.42315 -19.84,0.90701 -27.473,-4.84273 -5.852,-4.40776 -8.834,-11.00738 -9.783,-18.1502 -1.169,-8.79749 -0.169,-18.92793 5.422,-26.14792 4.489,-5.79985 10.862,-8.61508 17.993,-9.46697 z"
       fill="#224762"
       id="path9"
       style="stroke-width:1.00111" /><path
       d="m 778.04236,285.90623 c 2.671,-0.20245 5.531,0.30568 7.692,1.97037 3.794,2.92347 4.234,7.69605 4.682,12.09479 l -10.094,-0.004 -12.965,-0.02 c 0.226,-3.05076 0.965,-6.25185 2.627,-8.8476 1.962,-3.06479 4.619,-4.39173 8.058,-5.19351 z"
       fill="#ffffff"
       id="path10"
       style="stroke-width:1.00111" /><path
       d="m 691.45936,352.51578 60.224,-0.011 -0.01,14.36182 -23.253,0.021 0.034,42.79981 -0.004,23.57121 c -5.124,-0.10323 -10.259,-0.0401 -15.383,-0.0401 l -0.006,-66.35097 -21.613,0.016 z"
       fill="#224762"
       id="path11"
       style="stroke-width:1.00111" /><path
       d="m 841.64936,375.3243 14.396,-10e-4 -0.007,17.80444 0.002,40.10082 -12.727,-0.0371 -0.584,-5.86198 c -4.473,4.27046 -9.049,6.76198 -15.406,6.89327 -5.203,0.10723 -10.15,-1.35801 -13.924,-5.10531 -8.396,-8.33747 -6.876,-21.86844 -6.856,-32.66636 l 0.054,-21.12279 14.567,-0.005 c 0.218,11.48544 -0.494,23.09716 0.065,34.55855 0.178,3.62804 0.85,7.70908 3.75,10.2046 1.831,1.57549 4.35,2.10266 6.711,1.85612 4.152,-0.43397 7.391,-3.25421 9.969,-6.32902 z"
       fill="#224762"
       id="path12"
       style="stroke-width:1.00111" /><path
       d="m 917.55636,275.39896 c 7.512,-0.39989 14.094,1.49331 20.636,5.15542 -1.191,3.8846 -2.151,7.76119 -2.793,11.77608 -4.612,-3.3414 -10.832,-6.8652 -16.729,-6.54149 -1.683,0.0912 -3.302,0.60735 -4.428,1.92226 -0.841,0.98218 -1.426,2.44341 -1.252,3.75432 0.739,5.56132 16.911,8.31542 22.391,13.15313 2.992,2.64085 4.452,6.16466 4.717,10.10539 0.335,4.95497 -0.723,9.5742 -4.202,13.28242 -4.178,4.45186 -9.55,6.24884 -15.515,6.46732 -8.139,0.12929 -14.38,-0.75266 -21.806,-4.28649 0.195,-4.03694 0.427,-8.07288 0.697,-12.10481 6.64,3.11089 13.689,6.70986 21.298,5.60942 2.269,-0.32873 4.11,-1.29487 5.431,-3.21011 0.644,-0.93307 1.022,-2.01647 0.78,-3.159 -1.199,-5.66254 -15.992,-9.00194 -20.833,-12.49066 -3.203,-2.30812 -5.983,-5.7297 -6.547,-9.7506 -0.665,-4.42079 0.557,-8.91675 3.366,-12.38945 3.837,-4.72947 8.963,-6.58258 14.789,-7.29315 z"
       fill="#224762"
       id="path13"
       style="stroke-width:1.00111" /><path
       d="m 893.72936,374.70493 c 2.105,-0.19644 4.189,-0.10624 6.298,-0.0381 l 0.036,14.82082 c -3.39,-0.34777 -7.044,-0.65946 -10.41,-0.011 -4.148,0.79977 -6.934,3.10688 -9.228,6.57557 -0.385,12.36138 -0.018,24.85405 0.006,37.23046 -4.811,-0.19443 -9.774,0.31069 -14.551,-0.19944 l -0.023,-57.75493 13.301,-0.008 1.135,8.0799 c 3.546,-4.67736 7.607,-7.50162 13.436,-8.69526 z"
       fill="#224762"
       id="path14"
       style="stroke-width:1.00111" /><path
       d="m 879.23436,276.12657 11.302,0.007 -0.007,37.29461 c 0.003,6.58859 0.459,13.47785 -0.164,20.02135 -1.169,0.53919 -2.86,0.32472 -4.135,0.32271 l -10.48,0.003 v -55.52399 c 1.067,-1.04732 2.033,-1.73785 3.484,-2.12471 z"
       fill="#224762"
       id="path15"
       style="stroke-width:1.00111" /><path
       d="m 881.00336,252.09233 c 1.664,-0.14933 3.679,-0.38184 5.282,0.12929 2.298,0.71759 4.187,2.37326 5.203,4.5591 1.226,2.6178 1.324,5.96421 0.242,8.64615 -1.07,2.65588 -2.897,4.13917 -5.482,5.1925 -1.908,0.41392 -3.741,0.50111 -5.612,-0.16637 -2.136,-0.76168 -3.832,-2.36123 -4.81,-4.40074 -1.239,-2.58273 -1.362,-5.90007 -0.365,-8.58101 1.067,-2.86735 2.843,-4.17325 5.542,-5.37892 z"
       fill="#224762"
       id="path17"
       style="stroke-width:1.00111" /><g
       id="g20"
       style="fill-rule:nonzero;stroke-width:1.0015748;stroke-dasharray:none"><g
         id="g19"
         transform="translate(-65.879802,-13.268537)"
         style="fill-rule:nonzero;stroke-width:1.0015748;stroke-dasharray:none"><path
           d="m 415.34485,466.57369 0.41773,0.23518 c -0.15076,2.00651 -4.84965,6.1925 -6.32449,7.78795 l -2.32187,-2.61283 c -0.89495,-1.22878 -1.0055,-2.38737 -1.75962,-3.70506 3.28584,-0.79469 6.64592,-1.2184 9.98825,-1.70524 z"
           fill="#224762"
           id="path18-2"
           sodipodi:nodetypes="cccccc"
           style="stroke-width:1.0015748;fill-rule:nonzero;stroke-dasharray:none" /><path
           d="m 416.17132,458.62161 -2.20494,-3.45108 c -0.36014,-1.06517 -1.46374,-6.13703 -2.08205,-8.77191 l 4.10108,-1.92046 c 1.90779,0.95087 3.05284,1.37218 5.33504,2.24182 -1.53728,3.91272 -3.25416,8.1497 -5.14913,11.90163 z"
           fill="#224762"
           id="path18-5"
           sodipodi:nodetypes="cccccc"
           style="stroke-width:1.0015748;fill-rule:nonzero;stroke-dasharray:none" /><path
           d="m 448.2341,450.01496 1.58546,1.8143 c -0.2528,1.77651 -6.26164,1.91379 -7.88347,5.52175 -1.58447,3.5248 -4.41372,6.61555 -6.02536,7.9963 l -4.58283,-4.74905 c -1.74523,-2.22397 -1.86448,-4.28558 -3.30807,-6.66056 2.01727,-0.36531 5.26833,0.40239 7.80343,-0.008 2.71822,-0.44071 4.72131,-2.06587 6.82819,-2.63393 2.66408,-0.71829 3.61976,0.21158 5.58265,-1.28019 z"
           fill="#224762"
           id="path18-1"
           sodipodi:nodetypes="ccscccssc"
           style="stroke-width:1.0015748;fill-rule:nonzero;stroke-dasharray:none" /><path
           d="m 426.23215,462.71462 c 0.37769,1.53637 -1.22534,3.19104 -3.0093,3.29266 l -1.85259,-0.75971 c -0.93928,-0.69195 -0.80267,-1.93921 -0.0363,-2.64395 2.17664,-2.07847 2.71228,-0.7885 4.89824,0.11097 z"
           fill="#224762"
           id="path18-27"
           sodipodi:nodetypes="ccccc"
           style="stroke-width:1.0015748;fill-rule:nonzero;stroke-dasharray:none" /><path
           d="m 463.90597,457.69144 c 1.32514,3.00338 -0.58791,11.61002 -4.7174,11.51747 -4.04297,-0.71424 -8.0302,-5.99319 -6.18784,-8.21092 0.97172,-1.16969 2.31521,-1.0762 1.66211,-3.1616 4.1209,-2.09846 4.80976,0.93797 9.24313,-0.14495 z"
           fill="#224762"
           id="path18-42"
           sodipodi:nodetypes="ccscc"
           style="stroke-width:1.0015748;fill-rule:nonzero;stroke-dasharray:none" /><path
           d="m 482.18221,446.91518 c 7.66571,-1.86942 1.54302,11.26152 -5.21489,13.44202 -2.61975,0.84528 -2.1029,2.50029 -2.47193,3.47972 l -4.03403,-2.18902 c -0.32608,-0.24747 3.26678,0.3195 5.30594,-2.16341 2.79701,-3.40569 5.10038,-12.39534 6.41491,-12.56931 z"
           fill="#224762"
           id="path18-21"
           sodipodi:nodetypes="csccsc"
           style="stroke-width:1.0015748;fill-rule:nonzero;stroke-dasharray:none" /><path
           d="m 494.52452,437.25201 0.78762,0.36059 c 1.30521,3.20167 -0.38067,5.84212 -3.61691,7.01848 -1.46286,0.53175 -2.22907,2.56749 -2.82409,2.79041 -1.96238,-0.73716 -1.66954,-5.34718 -0.28017,-5.90947 1.40723,-0.56952 3.41602,-1.11783 4.3947,-1.77998 1.12907,-0.76391 0.44666,-1.9249 1.53885,-2.48003 z"
           fill="#224762"
           id="path18-57"
           sodipodi:nodetypes="ccscssc"
           style="stroke-width:1.0015748;fill-rule:nonzero;stroke-dasharray:none" /></g><path
         d="m 428.56695,222.64033 c 4.51372,-0.0678 8.82128,6.24822 14.02455,6.62984 20.37742,1.4899 41.55333,2.01493 62.05677,2.99285 6.58961,0.3138 17.82708,0.13385 23.93148,1.31779 3.75032,0.7267 7.2918,2.57126 10.75856,4.07855 l 18.66157,8.10843 c 3.34162,1.45166 6.80208,3.24233 10.29673,4.29239 5.59849,1.68201 17.97923,1.67593 24.66968,2.54433 -0.27907,-2.48696 -0.97044,-5.64323 -0.45011,-8.10497 2.96892,-1.20131 8.92029,2.61908 11.67048,3.90991 4.22653,1.98366 8.66192,4.44801 13.13601,5.78839 3.81694,1.14221 8.0957,1.30215 12.05578,1.73331 6.37986,0.65628 12.75342,1.37255 19.11889,2.14881 1.90668,3.66651 3.53698,7.53818 4.20314,11.6037 -3.84395,3.67089 -9.16875,6.65851 -13.60955,9.68004 -10.9719,7.46346 -22.46952,14.65221 -32.98231,22.69371 -3.96549,3.03284 -19.57712,25.53877 -22.3957,31.01944 -1.48807,2.89375 -2.61335,5.78144 -2.97614,9.00725 -1.27021,11.32294 4.53711,14.66524 11.21946,22.73455 -14.39184,9.12285 -17.57501,16.08473 -21.83488,31.82873 -4.32286,1.20044 -15.37848,4.29499 -18.59496,6.88799 -1.67441,1.34995 -2.8384,3.2432 -4.069,4.95824 -2.05521,2.8642 -4.13023,6.0961 -6.71566,8.53436 -0.0891,0.0835 -0.18094,0.16517 -0.27185,0.24861 -16.93948,-7.95891 -24.99259,-20.73367 -33.74094,-37.30084 -20.69346,-47.27177 15.72467,-106.30198 82.3692,-91.78891 -1.642,4.10812 -2.67557,6.20982 -4.22126,10.3553 10.63792,-2.4878 23.19824,-5.22425 33.70023,-8.24665 -12.2639,-19.43076 0.11835,-0.14497 -14.32746,-22.4703 -2.76188,2.47913 -3.00625,3.00099 -7.19366,7.99283 -12.84167,-4.37583 -18.79392,-5.56846 -32.43139,-5.54325 -2.84199,0 -5.69209,0.0208 -8.52329,0.27555 -21.45228,1.93323 -40.29571,11.98011 -53.99798,27.92403 -9.47573,11.02565 -17.23204,25.26756 -19.47089,39.60595 -1.09827,7.03665 -0.91013,15.30242 -0.19804,22.37035 1.98229,19.68606 11.99094,39.06093 27.94286,51.6191 23.34184,18.37349 55.99378,19.70865 83.29929,9.48881 6.61605,-2.69788 13.41038,-5.16917 20.28352,-8.9908 -0.49511,1.37952 -4.16235,3.91694 -5.33265,4.78272 -13.19634,9.76002 -33.95454,16.26468 -50.61674,16.21512 -6.80478,-0.0208 -13.51772,-1.20479 -20.03713,-3.02936 -10.38766,-2.90766 -20.3891,-7.88678 -31.19538,-9.16111 -19.38085,-2.28526 -25.78683,7.01405 -39.481,17.27651 -0.35469,-0.0592 -0.67697,-0.11128 -1.01635,-0.22862 -3.50186,-1.21348 -8.72854,-3.27362 -11.34638,-5.88227 -3.47396,-3.46312 -6.0936,-15.16071 -8.30725,-20.17025 -4.33008,-1.86455 -18.06294,-4.21329 -20.67448,-6.60982 -2.21274,-2.03145 -2.0318,-8.02586 -2.07682,-10.8466 2.38829,-4.46798 6.31327,-8.67605 9.43073,-12.71114 -1.40256,-4.10289 -2.90412,-8.20492 -4.0384,-12.38518 2.07051,-5.02257 5.2807,-9.90172 7.93725,-14.66437 -3.40733,-5.64843 -7.02712,-11.18126 -10.44526,-16.82535 3.50905,-2.00536 7.30709,-3.65349 10.89448,-5.54846 0.80659,-5.33463 6.51669,-34.53037 8.35045,-37.73359 1.86345,-3.25712 7.48444,-7.43476 10.41286,-10.14422 -6.55991,-6.85671 -11.3824,-9.05767 -20.56826,-11.3812 -8.08399,-2.04536 -10.98541,-2.49823 -19.28931,-1.56553 -3.63771,0.40855 -8.83243,1.82111 -12.35491,1.13176 -1.716,-1.71502 0.90256,-13.49781 0.65634,-16.75144 -0.43795,-5.78926 -7.13793,-11.15518 -7.4595,-16.00737 1.58808,-2.87377 26.07564,-14.98077 31.16458,-17.68765 z"
         fill="#224762"
         id="path2"
         sodipodi:nodetypes="cccccccccccccccccccccsccccccccccccccccccccccccccccccccccccccc"
         style="stroke-width:1.0015748;fill-rule:nonzero;stroke-dasharray:none" /><path
         d="m 627.30205,338.47959 c 0.71121,0.62106 4.48066,2.34996 4.43489,2.54348 -0.20042,0.84743 -0.56114,4.0219 -0.38965,4.22768 0.18144,0.21773 5.63009,0.74155 7.03637,0.90915 l -8.26961,15.57921 -5.069,-4.22698 c -4.293,-1.41313 -7.29575,-0.91024 -12.964,-1.27821 2.63646,-5.18913 6.99826,-12.20356 7.85996,-12.96234 0.21673,-0.19084 4.3177,-2.70202 7.36104,-4.79199 z"
         fill="#224762"
         id="path16"
         sodipodi:nodetypes="cssccccsc"
         style="stroke-width:1.0015748;fill-rule:nonzero;stroke-dasharray:none" /><path
         d="m 608.93053,357.74181 0.471,0.0892 c 0.499,1.94932 -2.614,7.41843 -3.501,9.40182 L 602.86487,365.5 c -1.241,-0.87795 -1.71634,-1.9403 -2.85234,-2.94753 2.859,-1.804 5.907,-3.28027 8.918,-4.81066 z"
         fill="#224762"
         id="path18"
         sodipodi:nodetypes="cccccc"
         style="stroke-width:1.0015748;fill-rule:nonzero;stroke-dasharray:none" /><path
         d="m 652.24849,340.53517 1.27058,5.01457 c -2.76326,-0.86517 -3.38159,-1.56877 -5.16412,-1.24849 l -3.80325,-0.38955 c -0.34548,-1.74149 -0.43702,-1.84435 -1.06129,-4.1309 2.21674,-1.13828 2.78007,-1.52646 3.50421,-1.51687 1.73783,0.023 3.55906,1.64882 5.25387,2.27124 z"
         fill="#224762"
         id="path18-4"
         sodipodi:nodetypes="cccccsc"
         style="stroke-width:1.0015748;fill-rule:nonzero;stroke-dasharray:none" /></g></g></svg>
